# xmcd
#
# Track frame offsets:
#	150
#	17895
#	41237
#	63417
#	88731
#	111583
#	131363
#	149879
#	161701
#	191378
#	207318
#	222612
#	235411
#
# Disc length: 3365 seconds
#
# Revision: 1
# Processed by: cddbd v1.5.1PL0 Copyright (c) Steve Scherf et al.
# Submitted via: audiograbber 1.83.01
#
DISCID=d20d230d
DTITLE=Various Artist - Songwriters on Beale St.
DYEAR=1999
DGENRE=
TTITLE0=Danny Flowers - Tulsa Time
TTITLE1=Tony Arata - Dreaming With My Eyes Open
TTITLE2=Keith Sykes - You Got Gold
TTITLE3=Alex Harvey - Delta Dawn
TTITLE4=Danny Flowers - Back In my Younger Years
TTITLE5=Fred Knobloch - A Lover Is Forever
TTITLE6=Paul Craft - Hank Williams, You Wrote My Life
TTITLE7=Jack Clement - Ballad Of A Teenage Queen
TTITLE8=Alex Harvey - Ruben James
TTITLE9=Tony Arata - The Dance
TTITLE10=Jack Clement - Miller's Cave
TTITLE11=Paul Craft - Brother Jukebox
TTITLE12=Keith Sykes - Volcano
EXTD=
EXTT0=
EXTT1=
EXTT2=
EXTT3=
EXTT4=
EXTT5=
EXTT6=
EXTT7=
EXTT8=
EXTT9=
EXTT10=
EXTT11=
EXTT12=
PLAYORDER=
